<svg width="139" height="32" viewBox="0 0 139 32" fill="none" xmlns="http://www.w3.org/2000/svg">
<path fill-rule="evenodd" clip-rule="evenodd" d="M0.0765 15.184C0.26775 8.13623 5.745 1.16573 13.7865 0.352727C24.165 -0.732523 30.7913 6.97448 31.3275 14.797C31.9785 24.4397 24.2048 32.3005 14.6302 31.72C6.43425 31.216 0.153 24.2072 0 16.3075L0.48975 16.3052C2.3535 16.2977 8.96325 16.2737 12.0637 16.3075C12.7162 16.3075 13.0297 16.432 13.446 16.597C13.494 16.6157 13.5435 16.636 13.596 16.6555L13.653 16.6847C13.8795 16.7972 14.1758 16.9457 14.2463 17.1595C14.292 17.3245 14.3355 17.467 14.3752 17.596C14.5027 18.0115 14.5912 18.3025 14.5912 18.8635C14.5778 19.075 14.556 19.342 14.5328 19.624C14.4878 20.1662 14.4382 20.7655 14.4382 21.148C14.4757 21.754 14.586 22.2865 14.7345 22.9982L14.7443 23.0455C14.859 23.8585 14.9738 24.7495 14.8207 25.5625C14.6782 26.2615 14.4157 26.9755 14.1562 27.685C13.9887 28.1308 13.8337 28.5812 13.6912 29.0357C13.5832 29.3972 13.485 29.7257 13.557 30.0542C13.7993 29.9935 14.1375 29.593 14.325 29.3702C14.3752 29.3117 14.4143 29.2652 14.4375 29.2412C15.5483 27.7697 16.0462 26.7242 16.7738 25.0592C17.1187 24.2845 17.3483 23.4715 17.004 22.6195C16.506 21.4195 16.506 20.7602 16.5443 19.4822C16.506 17.8562 17.0805 16.7717 17.9618 16.5392C18.6502 16.3457 19.5697 16.0742 20.1825 15.8815C19.8802 15.7795 19.533 15.685 19.1775 15.5882C18.7237 15.4637 18.255 15.3362 17.8463 15.184C17.6408 15.115 17.4653 14.89 17.3212 14.7047C17.3048 14.6837 17.2883 14.6627 17.2717 14.6417C16.3582 13.4695 16.4767 12.1007 16.5907 10.7762C16.6012 10.6577 16.6117 10.5392 16.6208 10.4207C16.653 10.081 16.7512 9.79598 16.8503 9.51098C16.9875 9.11348 17.1248 8.71598 17.0805 8.17448C16.974 7.10123 16.377 5.99423 15.7125 4.76198L15.5483 4.45748C15.1658 3.75998 14.7442 3.21773 14.2845 2.63723C14.0167 2.32748 13.404 1.70723 13.3275 1.66973C13.3395 1.71773 13.3553 1.80773 13.3748 1.92023C13.4175 2.16548 13.4783 2.51423 13.557 2.75273C13.6335 3.10223 13.7872 3.60548 13.902 3.95423C13.9905 4.18373 14.0775 4.39373 14.1608 4.59398C14.5823 5.60648 14.898 6.36398 14.706 8.17448C14.6842 8.37923 14.6602 8.58623 14.6355 8.79698C14.5282 9.70373 14.4143 10.6765 14.4765 11.776C14.4915 12.0347 14.5298 12.2455 14.5665 12.4457C14.6235 12.7562 14.676 13.0412 14.6295 13.4417C14.5148 14.5645 14.361 14.758 13.5195 14.9905C13.059 15.1067 12.6383 15.184 12.1785 15.184H0.0765ZM49.1348 11.3507L50.0542 12.3572C50.2837 12.5897 50.322 12.706 50.0925 12.9377C48.9435 14.0612 47.22 14.797 45.4583 14.797C41.8582 14.797 39.1012 11.9312 39.1012 8.29073C39.1012 4.65098 41.8973 1.78523 45.4583 1.78523C47.2207 1.78523 48.9435 2.52098 50.0925 3.68273C50.322 3.91523 50.2455 4.03148 50.0542 4.26398L49.1348 5.27048C49.02 5.42573 48.9053 5.46398 48.8288 5.46398C48.7523 5.46398 48.6758 5.42573 48.5602 5.30948C47.7952 4.45748 46.7993 3.87698 45.4583 3.87698C42.969 3.87698 41.361 5.92898 41.361 8.29073C41.361 10.6532 42.969 12.706 45.4583 12.706C46.7993 12.706 47.7945 12.1637 48.5993 11.311C48.6758 11.2345 48.7905 11.1565 48.8288 11.1565C48.9435 11.1565 49.02 11.2352 49.1348 11.3507ZM51.165 8.29073C51.165 4.65098 53.9603 1.78523 57.5602 1.78523C61.1603 1.78523 63.918 4.65023 63.918 8.29073C63.918 11.9312 61.122 14.797 57.5602 14.797C53.9985 14.797 51.165 11.9312 51.165 8.29073ZM53.463 8.29073C53.463 10.6532 55.071 12.706 57.5602 12.706C60.0503 12.706 61.6582 10.6532 61.6582 8.29073C61.6582 5.92823 60.0112 3.87623 57.5602 3.87623C55.1093 3.87623 53.463 5.92898 53.463 8.29073ZM66.33 14.6035H73.6455C73.9515 14.6035 74.028 14.4872 74.028 14.1775V12.9775C74.028 12.628 73.9515 12.5507 73.6455 12.5507H68.2073V2.40473C68.2073 2.09498 68.1308 2.01773 67.824 2.01773H66.33C66.024 2.01773 65.9475 2.09498 65.9475 2.40473V14.1775C65.9475 14.5255 66.024 14.6035 66.33 14.6035ZM84.828 12.8605V14.1775C84.828 14.4872 84.7132 14.6035 84.4447 14.6035L76.326 14.5645C76.0192 14.5645 75.9427 14.4872 75.9427 14.1385V2.40473C75.9427 2.09498 76.0192 2.01773 76.326 2.01773H84.33C84.5978 2.01773 84.7132 2.09498 84.7132 2.40473V3.68273C84.7132 3.99248 84.5978 4.06973 84.33 4.06973H78.2025V7.20698H84.0232C84.33 7.20698 84.4065 7.28423 84.4065 7.59398V8.87198C84.4065 9.18173 84.33 9.25898 84.0232 9.25898H78.2408V12.4735H84.4447C84.7132 12.4735 84.828 12.5507 84.828 12.8605ZM93.483 9.72398C95.0535 9.33698 96.432 8.21348 96.432 5.96723C96.432 3.02423 94.134 2.01773 92.0662 2.01773H87.3938C87.087 2.01773 87.0105 2.09498 87.0105 2.40473V14.1775C87.0105 14.5255 87.087 14.6035 87.3938 14.6035H88.8487C89.1937 14.6035 89.2702 14.4872 89.2702 14.1775H89.232V9.87848H90.9555L93.828 14.1775C94.0192 14.4872 94.2105 14.6035 94.5173 14.6035H96.087C96.4702 14.6035 96.6232 14.4092 96.3937 14.0995L93.483 9.72398ZM89.2702 7.78748V4.06973H91.836C93.5977 4.06973 94.1723 4.80548 94.1723 5.92898C94.1723 7.05173 93.5595 7.82648 91.836 7.82648V7.78748H89.2702ZM100.338 14.6035H98.883C98.5762 14.6035 98.4997 14.5255 98.4997 14.1775V2.40473C98.4997 2.09498 98.5762 2.01773 98.883 2.01773H100.338C100.645 2.01773 100.759 2.09498 100.759 2.40473V14.1775C100.759 14.4872 100.683 14.6035 100.338 14.6035ZM108.61 2.01773H104.129C103.823 2.01773 103.747 2.09498 103.747 2.40473V14.1385C103.747 14.4872 103.823 14.5645 104.129 14.5645H108.61C112.21 14.5645 114.891 11.9312 114.891 8.29073C114.891 4.65098 112.21 2.01773 108.61 2.01773ZM108.61 12.5117H106.006V4.06973H108.61C111.1 4.06973 112.593 5.92898 112.593 8.29073C112.593 10.6532 111.1 12.5117 108.61 12.5117ZM122.742 7.67123H127.069C127.375 7.67123 127.452 7.78748 127.452 8.05898V12.241C127.452 12.5117 127.375 12.706 127.184 12.8995C125.997 14.0612 124.159 14.797 122.397 14.797C118.797 14.797 116.04 11.9312 116.04 8.29073C116.04 4.65098 118.835 1.78523 122.397 1.78523C124.159 1.78523 125.882 2.52098 127.031 3.68273C127.261 3.91523 127.223 4.03148 126.993 4.22498L126.035 5.27048C125.92 5.38673 125.844 5.46398 125.768 5.46398C125.691 5.46398 125.614 5.42573 125.499 5.30948C124.733 4.45748 123.775 3.87698 122.397 3.87698C119.908 3.87698 118.338 5.92898 118.338 8.29073C118.338 10.6532 119.908 12.706 122.397 12.706C123.546 12.706 124.504 12.3182 125.193 11.7377V9.76298H122.742C122.435 9.76298 122.359 9.68498 122.359 9.33698V8.05898C122.359 7.78748 122.435 7.67123 122.742 7.67123ZM138.367 12.4735H132.163V9.25898H137.984C138.29 9.25898 138.367 9.18173 138.367 8.87198V7.59398C138.367 7.28423 138.29 7.20698 137.984 7.20698H132.163V4.06973H138.29C138.559 4.06973 138.673 3.99248 138.673 3.68273V2.40473C138.673 2.09498 138.559 2.01773 138.29 2.01773H130.286C129.98 2.01773 129.904 2.09498 129.904 2.40473V14.1385C129.904 14.4872 129.98 14.5645 130.286 14.5645L138.367 14.6035C138.635 14.6035 138.75 14.4872 138.75 14.1775V12.8605C138.75 12.5507 138.635 12.4735 138.367 12.4735ZM40.9012 18.2822H41.4757C41.667 18.2822 41.7052 18.3212 41.7052 18.5147V30.5972C41.7052 30.7907 41.6677 30.8297 41.4757 30.8297H40.9012C40.71 30.8297 40.6717 30.79 40.6717 30.5972V18.5147C40.6717 18.3205 40.7093 18.2822 40.9012 18.2822ZM56.3347 18.2822H55.7603C55.569 18.2822 55.5308 18.3212 55.5308 18.5147V28.5827L47.1052 18.2432C47.0287 18.127 46.9905 18.0887 46.8757 18.0887H46.7992C46.6838 18.0887 46.6455 18.127 46.6455 18.2432V30.5965C46.6455 30.79 46.6838 30.829 46.8757 30.829H47.4502C47.6415 30.829 47.6798 30.7907 47.6798 30.5965V20.5285L56.067 30.868C56.1435 30.9842 56.22 31.0225 56.3347 31.0225H56.4112C56.526 31.0225 56.5642 30.9842 56.5642 30.868V18.5147C56.5642 18.3205 56.5267 18.2822 56.3347 18.2822ZM61.7348 18.2822H62.3092C62.5005 18.2822 62.5387 18.3212 62.5387 18.5147V30.5972C62.5387 30.7907 62.5013 30.8297 62.3092 30.8297H61.7348C61.5435 30.8297 61.5053 30.79 61.5053 30.5972V18.5147C61.5053 18.3205 61.5428 18.2822 61.7348 18.2822ZM75.522 18.2822L66.2535 18.2432C66.0622 18.2432 66.024 18.2822 66.024 18.4757V19.018C66.024 19.2115 66.1005 19.2505 66.2535 19.2505H70.3897V30.6355C70.3897 30.829 70.4662 30.868 70.6192 30.868H71.1938C71.3857 30.868 71.424 30.829 71.424 30.6355V19.2887H75.522C75.7132 19.2887 75.7515 19.2505 75.7515 19.0562V18.5147C75.7515 18.3205 75.7132 18.2822 75.522 18.2822ZM79.6958 18.2822H80.2702C80.4622 18.2822 80.5005 18.3212 80.5005 18.5147V30.5972C80.5005 30.7907 80.4622 30.8297 80.2702 30.8297H79.6958C79.5045 30.8297 79.4662 30.79 79.4662 30.5972V18.5147C79.4662 18.3205 79.5045 18.2822 79.6958 18.2822ZM89.8065 18.2432C89.7682 18.127 89.6917 18.0887 89.6152 18.0887H89.538C89.4232 18.0887 89.385 18.127 89.3467 18.2432L83.679 30.5965C83.6025 30.7517 83.6407 30.829 83.7937 30.829H84.5212C84.7132 30.829 84.7897 30.7907 84.8662 30.5965L86.283 27.499H92.832L94.2487 30.5965C94.3635 30.79 94.44 30.829 94.5938 30.829H95.3213C95.436 30.829 95.4743 30.7517 95.436 30.5965L89.8065 18.244V18.2432ZM86.781 26.4145L89.577 20.257L92.3723 26.4145H86.781ZM97.6192 18.2432L106.887 18.2822C107.078 18.2822 107.117 18.3212 107.117 18.5147V19.057C107.117 19.2505 107.078 19.2895 106.887 19.2895H102.789V30.6355C102.789 30.829 102.751 30.868 102.56 30.868H101.985C101.832 30.868 101.755 30.829 101.755 30.6355V19.2505H97.6192C97.4655 19.2505 97.389 19.2115 97.389 19.018V18.475C97.389 18.2815 97.4272 18.2432 97.6192 18.2432ZM111.444 18.2822H110.87C110.678 18.2822 110.64 18.3212 110.64 18.5147V30.5972C110.64 30.7907 110.678 30.8297 110.87 30.8297H111.444C111.636 30.8297 111.674 30.79 111.674 30.5972V18.5147C111.674 18.3205 111.636 18.2822 111.444 18.2822ZM126.188 18.2822H126.917C127.07 18.2822 127.108 18.3595 127.031 18.5147L121.402 30.8672C121.364 30.9842 121.286 31.0225 121.21 31.0225H121.095C121.019 31.0225 120.98 30.9842 120.904 30.868L115.274 18.5147C115.197 18.3595 115.236 18.2822 115.389 18.2822H116.117C116.308 18.2822 116.384 18.3212 116.461 18.5147L121.133 28.8542H121.171L125.844 18.5147C125.921 18.3205 126.035 18.2822 126.188 18.2822ZM138.252 29.8225H131.09V24.9812H137.831C138.022 24.9812 138.061 24.943 138.061 24.7487V24.2072C138.061 24.0137 137.984 23.9747 137.831 23.9747H131.09V19.2887H138.175C138.367 19.2887 138.405 19.2505 138.405 19.0562V18.5147C138.405 18.3205 138.328 18.2822 138.175 18.2822H130.325C130.133 18.2822 130.095 18.3212 130.095 18.5147V30.5972C130.095 30.7907 130.133 30.8297 130.325 30.8297H138.252C138.444 30.8297 138.482 30.79 138.482 30.5972V30.0542C138.482 29.8607 138.405 29.8225 138.252 29.8225Z" fill="white"/>
</svg>
